<?xml version="1.0" encoding="UTF-8"?>
<svg id="Layer_1" data-name="Layer 1" xmlns="http://www.w3.org/2000/svg" viewBox="0 0 29 29">
  <defs>
    <style>
      .cls-1 {
        fill: #fff;
      }

      .cls-2 {
        fill: #7d94fc;
      }
    </style>
  </defs>
  <path d="M8.22,2.51c.96-.01,1.91,0,2.87,0h8.51c.64,0,1.3-.03,1.93,.09,1.2,.2,2.33,.78,3.19,1.62,1,.96,1.63,2.28,1.75,3.65,.03,.31,.02,.62,.03,.93v11.11c0,.49,.02,.99-.05,1.48-.15,1.17-.68,2.29-1.49,3.17-1,1.09-2.42,1.8-3.91,1.93-.27,.03-.55,.02-.82,.02-3.9,0-7.79,0-11.69,0-1.18,.01-2.36-.33-3.34-.97-1.38-.89-2.36-2.36-2.61-3.96-.07-.39-.08-.79-.08-1.18V8.4c0-.51,.06-1.02,.2-1.51,.3-1.12,.94-2.14,1.83-2.91,1.01-.89,2.34-1.42,3.69-1.48Z"/>
  <path class="cls-2" d="M28.97,7.65c-.17-1.98-1.06-3.83-2.49-5.22-1.22-1.19-2.83-2.01-4.48-2.29C21.26,0,20.59,0,20,0H9.99c-.6,0-1.2,0-1.8,0h-.08c-1.93,.09-3.79,.83-5.22,2.09C1.63,3.19,.7,4.66,.28,6.24,.1,6.93,0,7.65,0,8.41v11.96c0,.4,0,1,.11,1.6,.37,2.28,1.76,4.39,3.72,5.66,1.37,.89,3.01,1.38,4.61,1.38,.03,0,.06,0,.09,0h11.85c.3,0,.6,0,.87-.03,2.11-.18,4.13-1.17,5.54-2.72,1.15-1.25,1.91-2.86,2.13-4.51,.08-.56,.08-1.06,.08-1.51V8.6c0-.33,0-.67-.03-.95Zm-2.47,12.26c0,.49,.02,.99-.05,1.48-.15,1.17-.68,2.29-1.49,3.17-1,1.09-2.42,1.8-3.91,1.93-.27,.03-.55,.02-.82,.02-3.9,0-7.79,0-11.69,0-1.18,.01-2.36-.33-3.34-.97-1.38-.89-2.36-2.36-2.61-3.96-.07-.39-.08-.79-.08-1.18V8.4c0-.51,.06-1.02,.2-1.51,.3-1.12,.94-2.14,1.83-2.91,1.01-.89,2.34-1.42,3.69-1.48,.96-.01,1.91,0,2.87,0h8.51c.64,0,1.3-.03,1.93,.09,1.2,.2,2.33,.78,3.19,1.62,1,.96,1.63,2.28,1.75,3.65,.03,.31,.02,.62,.03,.93v11.11Z"/>
  <g>
    <path class="cls-1" d="M5.3,8.42c.08-.04,.18,0,.26,0,1.3,0,2.6,0,3.9,0,.72,0,1.44,0,2.16,0,.17,.03,.34,.02,.51,.04,.09,.01,.18,.04,.26,.06,.22,.02,.43,.13,.64,.2,.37,.17,.72,.41,.98,.71,.19,.24,.36,.5,.47,.78,.02,.11,.08,.2,.1,.31,.03,.16,.09,.31,.11,.46,0,.3,.01,.59,0,.89-.05,.26-.13,.52-.26,.76-.13,.27-.35,.49-.6,.66-.12,.1-.27,.16-.41,.22-.1,.04-.21,.02-.29,.09,.04,.03,.08,.05,.13,.06,.15,.02,.3,.05,.44,.11,.18,.08,.37,.17,.52,.31,.11,.1,.21,.2,.3,.32,.15,.18,.24,.39,.33,.6,.04,.15,.11,.3,.14,.46,.03,.13,.09,.26,.08,.39,0,.19,.03,.38,.02,.57,0,.21-.02,.41-.02,.61,0,.09-.03,.18-.05,.28-.03,.14-.05,.28-.11,.41-.04,.09-.06,.18-.1,.27-.08,.17-.16,.35-.29,.5-.15,.24-.36,.43-.58,.61-.13,.09-.25,.19-.4,.26-.17,.11-.36,.17-.54,.26-.23,.08-.46,.13-.69,.19-.17,.03-.35,.05-.52,.07-.12,0-.24,.02-.35,.02-1.94,0-3.88,0-5.82,0-.11,0-.23,.02-.34-.02-.02-.07-.03-.15,0-.22,.02-.11-.02-.21-.01-.32,0-.18,.03-.35,.02-.52,.01-.2-.04-.39,0-.59,.02-.11-.02-.21,0-.32,.04-.26-.03-.52,0-.77,.02-.09-.01-.18-.01-.27,0-.27,0-.53,0-.8,.01-.1,.02-.2,0-.3-.02-.08,.01-.17,0-.25,0-.26,0-.52,0-.77,0-.1-.03-.2-.01-.3,.02-.14,.02-.29,0-.43,.03-.32,0-.64,.02-.96,0-.1-.03-.2,0-.3,.02-.1,0-.2,0-.3,0-.24,0-.49,0-.73,0-.11,.03-.21,0-.32-.02-.11,0-.21,0-.32,0-.15,0-.3-.01-.46-.01-.11,.02-.21,.01-.32-.02-.13-.02-.26,0-.39,0-.16,0-.32,0-.48-.02-.12-.02-.24,0-.36,.02-.23-.05-.46,0-.69Zm2.72,2.02l-.03,.03c0,.82,0,1.64,0,2.46,0,.07,.08,.06,.13,.06,1.07,0,2.13,0,3.2,0,.18,.01,.36-.06,.51-.16,.25-.21,.35-.53,.36-.84,0-.23,0-.46,0-.68-.03-.25-.14-.51-.34-.67-.11-.11-.26-.16-.41-.2-.04,0-.08,0-.12,0-1.1,0-2.2,0-3.29,0Zm-.02,4.36l-.02,.02c0,.96,0,1.91,0,2.87,0,.05-.02,.11,.03,.14,.06,.01,.11,0,.17,0,1.07,0,2.13,0,3.2,0,.15,0,.28-.05,.42-.08,.08-.02,.15-.07,.23-.11,.18-.1,.31-.25,.4-.43,.17-.31,.18-.67,.17-1.01,0-.1-.03-.19-.03-.29-.05-.33-.21-.64-.46-.85-.15-.14-.35-.21-.55-.26-.09-.03-.19-.02-.29-.02-1.04,0-2.07,0-3.11,0-.05,0-.12-.02-.16,.02Z"/>
    <path class="cls-1" d="M17.54,9.1c.3-.01,.61,0,.92,0,1.28,0,2.57,0,3.85,0,.08-.01,.06,.08,.06,.13,0,.41,0,.82,0,1.23-.04,.08-.15,.05-.22,.07-1.48,0-2.95,0-4.43,0-.07,0-.13-.03-.19-.04,0-.37,0-.75,0-1.12,.01-.09,0-.17,.02-.26Z"/>
    <path class="cls-1" d="M19.53,11.35c.36,0,.71,0,1.07,0,.15,.03,.3,.04,.45,.05,.11,.02,.22,.07,.33,.08,.06,0,.11,.02,.16,.04,.09,.04,.18,.04,.26,.08,.35,.15,.69,.32,.97,.58,.2,.16,.36,.35,.52,.54,.19,.24,.33,.52,.46,.8,.1,.24,.2,.48,.24,.74,.02,.09,.05,.17,.06,.26,0,.18,.09,.34,.09,.52,0,.08,.03,.16,.02,.24,0,.34,0,.69,0,1.03-2,0-4.01,0-6.01,0-.04,0-.06,0-.08,.04-.01,.16,.02,.31,.05,.46,.04,.18,.08,.36,.16,.52,.09,.16,.19,.32,.32,.44,.24,.26,.58,.41,.93,.48,.13,.03,.27,.07,.41,.07,.19,0,.39,0,.58,0,.21-.03,.42-.07,.63-.15,.21-.05,.38-.19,.53-.34,.19-.18,.32-.42,.32-.68,0-.04,.04-.07,.08-.06,.63,0,1.25,0,1.88,0,.04,0,.09-.01,.11,.03,0,.17-.02,.34-.03,.51-.04,.09-.04,.19-.05,.28-.07,.22-.15,.44-.26,.64-.1,.16-.21,.32-.34,.46-.28,.3-.62,.54-1.01,.7-.18,.08-.36,.16-.56,.21-.13,.03-.24,.09-.37,.1-.09,0-.18,.02-.27,.05-.15,.04-.31,0-.47,.04-.27,.02-.55,0-.83,0-.13,0-.26,0-.39-.02-.15-.01-.31,.01-.46-.03-.14-.04-.29-.03-.42-.07-.23-.08-.48-.13-.7-.25-.15-.06-.3-.12-.44-.21-.4-.22-.73-.52-1.02-.87-.13-.18-.25-.36-.36-.54-.21-.43-.39-.87-.45-1.34-.1-.39-.07-.8-.07-1.21,.01-.23,.05-.46,.09-.68,0-.19,.09-.36,.13-.54,.11-.31,.21-.62,.38-.91,.27-.47,.6-.92,1.05-1.25,.25-.2,.54-.36,.84-.49,.12-.04,.24-.11,.37-.13,.08-.01,.15-.05,.22-.07,.06-.01,.13-.02,.19-.03,.17-.05,.34-.09,.52-.09,.06,0,.11-.02,.17-.02Zm-.04,1.74c-.19,.07-.38,.14-.54,.25-.36,.22-.59,.59-.75,.96-.04,.16-.13,.31-.14,.48,1.27,0,2.55,0,3.82,0,0-.1,0-.19-.01-.29,0-.13-.07-.25-.11-.38-.08-.26-.23-.5-.43-.68-.16-.18-.39-.28-.62-.35-.15-.02-.3-.06-.46-.06-.09,0-.17-.03-.26,0-.17,0-.34,.03-.5,.06Z"/>
  </g>
</svg>