<?xml version="1.0" encoding="UTF-8"?>
<svg id="Layer_1" data-name="Layer 1" xmlns="http://www.w3.org/2000/svg" viewBox="0 0 29 29">
  <defs>
    <style>
      .cls-1 {
        fill: #fff;
      }

      .cls-2 {
        fill: #7d94fc;
      }

      .cls-3 {
        fill: #212121;
      }
    </style>
  </defs>
  <path d="M8.22,2.51c.96-.01,1.91,0,2.87,0h8.51c.64,0,1.3-.03,1.93,.09,1.2,.2,2.33,.78,3.19,1.62,1,.96,1.63,2.28,1.75,3.65,.03,.31,.02,.62,.03,.93v11.11c0,.49,.02,.99-.05,1.48-.15,1.17-.68,2.29-1.49,3.17-1,1.09-2.42,1.8-3.91,1.93-.27,.03-.55,.02-.82,.02-3.9,0-7.79,0-11.69,0-1.18,.01-2.36-.33-3.34-.97-1.38-.89-2.36-2.36-2.61-3.96-.07-.39-.08-.79-.08-1.18V8.4c0-.51,.06-1.02,.2-1.51,.3-1.12,.94-2.14,1.83-2.91,1.01-.89,2.34-1.42,3.69-1.48Z"/>
  <path class="cls-2" d="M28.97,7.65c-.17-1.98-1.06-3.83-2.49-5.22-1.22-1.2-2.83-2.01-4.48-2.29C21.26,0,20.59,0,20,0H9.99c-.6,0-1.2,0-1.8,0h-.08c-1.93,.09-3.79,.83-5.22,2.09C1.63,3.19,.7,4.67,.28,6.24,.1,6.93,0,7.65,0,8.41v11.96c0,.62,.03,1.15,.11,1.6,.37,2.28,1.76,4.39,3.72,5.66,1.37,.89,3.01,1.38,4.61,1.38,.03,0,.06,0,.09,0h11.85c.3,0,.6,0,.87-.03,2.11-.18,4.13-1.17,5.54-2.72,1.15-1.25,1.91-2.86,2.13-4.51,.08-.56,.08-1.06,.08-1.51V8.6c0-.33,0-.67-.03-.95Zm-2.47,12.26c0,.49,.02,.99-.05,1.48-.15,1.17-.68,2.29-1.49,3.17-1,1.09-2.42,1.8-3.91,1.93-.27,.03-.55,.02-.82,.02-3.9,0-7.79,0-11.69,0-1.18,.01-2.36-.33-3.34-.97-1.38-.89-2.36-2.36-2.61-3.96-.07-.39-.08-.79-.08-1.18V8.4c0-.51,.06-1.02,.2-1.51,.3-1.12,.94-2.14,1.83-2.91,1.01-.89,2.34-1.42,3.69-1.48,.96-.01,1.91,0,2.87,0h8.51c.64,0,1.3-.03,1.93,.09,1.2,.2,2.33,.78,3.19,1.62,1,.96,1.63,2.28,1.75,3.65,.03,.31,.02,.62,.03,.93v11.11Z"/>
  <g>
    <path class="cls-1" d="M14.5,23.3c-3.67,0-7.01-2.26-8.31-5.61-.53-1.36-.73-2.77-.54-4.21,.37-2.79,1.77-4.93,4.14-6.43,1.41-.89,2.96-1.32,4.63-1.33,4.2-.04,7.8,2.8,8.76,6.76,.84,3.46-.53,7.09-3.47,9.18-1.27,.9-2.69,1.44-4.24,1.6-.32,.03-.64,.05-.96,.06Z"/>
    <path class="cls-3" d="M14.48,20.86c-1.31,.01-2.64-.41-3.83-1.28-.06-.04-.11-.07-.05-.16,.87-1.31,1.95-2.41,3.35-3.16,.45-.24,.92-.44,1.41-.59,.09-.03,.13-.02,.17,.08,.56,1.49,.99,3.02,1.27,4.59,.02,.08-.02,.1-.08,.12-.67,.25-1.36,.37-2.23,.4Z"/>
    <path class="cls-3" d="M9.55,18.56c-.58-.69-.99-1.45-1.24-2.3-.17-.58-.26-1.18-.25-1.79,0-.1,.02-.14,.13-.14,1.04,0,2.09-.06,3.13-.18,1.03-.12,2.04-.31,3.03-.61,.18-.05,.18-.06,.27,.12,.1,.21,.19,.42,.3,.63,.05,.1,.03,.13-.07,.16-1.52,.48-2.83,1.32-3.94,2.45-.46,.47-.88,.98-1.25,1.52-.03,.04-.06,.08-.09,.13Z"/>
    <path class="cls-3" d="M9.06,12.99c-.22,0-.44,0-.65,0-.16,0-.16,0-.11-.15,.37-1.3,1.08-2.38,2.12-3.24,.34-.28,.7-.52,1.09-.72,.07-.04,.11-.04,.16,.03,.8,1.04,1.52,2.12,2.17,3.26,.06,.11,.03,.13-.07,.16-.94,.25-1.9,.42-2.87,.53-.61,.06-1.22,.1-1.83,.14Z"/>
    <path class="cls-3" d="M14.57,8.14c1.35,.01,2.62,.43,3.77,1.26,.09,.07,.07,.1,.01,.17-.73,.88-1.63,1.53-2.65,2.03-.13,.06-.27,.12-.41,.19-.08,.04-.12,.02-.17-.06-.41-.76-.87-1.49-1.36-2.2-.25-.37-.51-.73-.77-1.09-.06-.08-.07-.11,.04-.13,.48-.11,.97-.17,1.53-.17Z"/>
    <path class="cls-3" d="M18.07,19.78c-.28-1.48-.68-2.91-1.21-4.31-.03-.07-.03-.1,.07-.12,.75-.1,1.49-.11,2.24-.06,.52,.03,1.04,.1,1.55,.18,.08,.01,.13,.02,.11,.13-.34,1.75-1.24,3.13-2.71,4.15-.01,0-.03,.02-.06,.03Z"/>
    <path class="cls-3" d="M20.92,14.06c.02,.11-.07,.07-.11,.06-.29-.05-.58-.08-.88-.11-.92-.09-1.85-.12-2.77-.02-.25,.03-.5,.06-.76,.09-.07,0-.1,0-.13-.07-.14-.31-.27-.61-.42-.91-.06-.11,.03-.11,.08-.14,.68-.3,1.32-.66,1.92-1.09,.55-.4,1.05-.86,1.49-1.39,.06-.07,.08-.08,.14,0,.81,1,1.29,2.14,1.42,3.43,0,.05,.01,.1,.02,.15Z"/>
  </g>
</svg>