<?xml version="1.0" encoding="UTF-8"?>
<svg id="Layer_1" data-name="Layer 1" xmlns="http://www.w3.org/2000/svg" viewBox="0 0 29 29">
  <defs>
    <style>
      .cls-1 {
        fill: #fefefe;
      }

      .cls-2 {
        fill: #7d94fc;
      }
    </style>
  </defs>
  <path d="M8.22,2.51c.96-.01,1.91,0,2.87,0h8.51c.64,0,1.3-.03,1.93,.09,1.2,.2,2.33,.78,3.19,1.62,1,.96,1.63,2.28,1.75,3.65,.03,.31,.02,.62,.03,.93v11.11c0,.49,.02,.99-.05,1.48-.15,1.17-.68,2.29-1.49,3.17-1,1.09-2.42,1.8-3.91,1.93-.27,.03-.55,.02-.82,.02-3.9,0-7.79,0-11.69,0-1.18,.01-2.36-.33-3.34-.97-1.38-.89-2.36-2.36-2.61-3.96-.07-.39-.08-.79-.08-1.18V8.41c0-.51,.06-1.02,.2-1.51,.3-1.12,.94-2.14,1.83-2.91,1.01-.89,2.34-1.42,3.69-1.48Z"/>
  <path class="cls-2" d="M28.97,7.65c-.17-1.98-1.06-3.83-2.49-5.22-1.22-1.19-2.83-2.01-4.48-2.29C21.26,0,20.59,0,20,0H9.99c-.6,0-1.2,0-1.8,0h-.08c-1.93,.09-3.79,.83-5.22,2.09C1.63,3.19,.7,4.67,.28,6.24,.1,6.93,0,7.65,0,8.41v11.96c0,.43,0,1.01,.11,1.59,.36,2.28,1.76,4.39,3.71,5.66,1.37,.89,3.01,1.38,4.61,1.38,.03,0,.06,0,.09,0h11.86c.3,0,.6,0,.87-.03,2.11-.18,4.13-1.17,5.54-2.72,1.15-1.25,1.91-2.86,2.13-4.51,.08-.56,.08-1.06,.07-1.5V8.62c0-.34,0-.69-.03-.98Zm-2.47,12.26c0,.49,.02,.99-.05,1.48-.15,1.17-.68,2.29-1.49,3.17-1,1.09-2.42,1.8-3.91,1.93-.27,.03-.55,.02-.82,.02-3.9,0-7.79,0-11.69,0-1.18,.01-2.36-.33-3.34-.97-1.38-.89-2.36-2.36-2.61-3.96-.07-.39-.08-.79-.08-1.18V8.41c0-.51,.06-1.02,.2-1.51,.3-1.12,.94-2.14,1.83-2.91,1.01-.89,2.34-1.42,3.69-1.48,.96-.01,1.91,0,2.87,0h8.51c.64,0,1.3-.03,1.93,.09,1.2,.2,2.33,.78,3.19,1.62,1,.96,1.63,2.28,1.75,3.65,.03,.31,.02,.62,.03,.93v11.11Z"/>
  <path class="cls-1" d="M6.65,14.51c0-4.23,3.51-7.7,7.78-7.7,4.4,0,7.92,3.42,7.91,7.71,0,4.24-3.5,7.67-7.84,7.69-4.31,.02-7.85-3.45-7.85-7.69Z"/>
  <path class="cls-1" d="M20.62,6.93c0-.86,.71-1.57,1.58-1.57,.9,0,1.61,.69,1.61,1.57,0,.86-.71,1.56-1.59,1.56-.88,0-1.6-.7-1.6-1.56Z"/>
  <path d="M9.5,14.51c0-2.69,2.23-4.91,4.95-4.91,2.81,0,5.04,2.18,5.04,4.91,0,2.7-2.23,4.88-4.99,4.9-2.75,.01-5-2.2-5-4.9Z"/>
</svg>