<?xml version="1.0" encoding="UTF-8"?>
<svg id="Layer_1" data-name="Layer 1" xmlns="http://www.w3.org/2000/svg" viewBox="0 0 29 29">
  <defs>
    <style>
      .cls-1 {
        fill: #fff;
      }

      .cls-2 {
        fill: #7d94fc;
      }
    </style>
  </defs>
  <path class="cls-2" d="M8.44,29c-1.6,0-3.25-.49-4.61-1.38-1.96-1.26-3.35-3.38-3.71-5.66C0,21.36,0,20.76,0,20.36V8.4c0-.75,.1-1.48,.28-2.16,.42-1.58,1.34-3.05,2.6-4.15C4.32,.84,6.17,.1,8.11,.01h.08c.6-.01,1.2,0,1.8,0h10.02c.58,0,1.25,0,1.99,.13,1.65,.28,3.26,1.1,4.48,2.29,1.43,1.39,2.32,3.24,2.49,5.22,.03,.29,.04,.63,.03,.98v11.59c0,.45,0,.96-.07,1.52-.22,1.65-.97,3.26-2.13,4.51-1.41,1.55-3.43,2.55-5.54,2.72-.27,.03-.57,.03-.87,.03h-.15s-11.71,0-11.71,0c-.03,0-.06,0-.09,0Z"/>
  <path d="M8.22,2.51c.96-.01,1.91,0,2.87,0h8.51c.64,0,1.3-.03,1.93,.09,1.2,.2,2.33,.78,3.19,1.62,1,.96,1.63,2.28,1.75,3.65,.03,.31,.02,.62,.03,.93v11.11c0,.49,.02,.99-.05,1.48-.15,1.17-.68,2.29-1.49,3.17-1,1.09-2.42,1.8-3.91,1.93-.27,.03-.55,.02-.82,.02-3.9,0-7.79,0-11.69,0-1.18,.01-2.36-.33-3.34-.97-1.38-.89-2.36-2.36-2.61-3.96-.07-.39-.08-.79-.08-1.18V8.4c0-.51,.06-1.02,.2-1.51,.3-1.12,.94-2.14,1.83-2.91,1.01-.89,2.34-1.42,3.69-1.48Z"/>
  <path d="M26.47,7.86c-.12-1.37-.76-2.68-1.75-3.65-.86-.84-1.99-1.42-3.19-1.62-.64-.12-1.29-.08-1.93-.09H11.09c-.96,0-1.91,0-2.87,0-1.35,.06-2.68,.59-3.69,1.48-.88,.77-1.53,1.79-1.83,2.91-.13,.49-.19,1-.2,1.51v11.98c0,.4,.01,.79,.08,1.18,.26,1.6,1.23,3.07,2.61,3.96,.98,.64,2.16,.99,3.34,.97,3.9,0,7.79,0,11.69,0,.27,0,.55,0,.82-.02,1.49-.13,2.92-.83,3.91-1.93,.81-.88,1.34-2,1.49-3.17,.07-.49,.05-.99,.05-1.48V8.79c0-.31,0-.62-.03-.93Z"/>
  <g>
    <path class="cls-1" d="M6.29,21.36c0-3.48,0-6.95,0-10.43,0-.06-.04-.13,.03-.18,.07,.09,.05,.19,.05,.28,0,2.5,0,5.01,0,7.51,0,.83,0,1.67,0,2.5,0,.23,0,.23,.24,.23,.9,0,1.8,0,2.71,0q.27,0,.27-.26c0-3.32,0-6.64,0-9.96,0-.1-.03-.21,.05-.3,.07,.03,.03,.09,.03,.14,0,3.49,0,6.98,0,10.48h-3.39Z"/>
    <path class="cls-1" d="M9.64,10.75c0,.06,0,.11,0,.17,0,3.41,0,6.82,0,10.22,0,.14-.03,.19-.19,.19-1,0-1.99,0-2.99,0-.11,0-.15-.02-.15-.14,0-3.45,0-6.9,0-10.35,0-.03,0-.06,0-.09,1.1,0,2.21,0,3.31,0Z"/>
    <path class="cls-1" d="M7.99,9.3c-1.07,0-1.95-.85-1.95-1.89,0-1.06,.87-1.93,1.95-1.93,1.07,0,1.94,.86,1.94,1.9,0,1.06-.86,1.91-1.94,1.92Z"/>
    <path class="cls-1" d="M22.25,16.57c0-.09-.01-.18,0-.28,.03-1.24-.04-2.09-.08-2.48-.05-.31-.11-.63-.2-.93-.32-1.04-.95-1.8-2.03-2.15-.74-.24-1.5-.3-2.26-.2-1.09,.15-1.97,.65-2.56,1.6-.02,.03-.02,.08-.08,.06,0-.43,0-.85,0-1.28,0-.14-.04-.16-.17-.16-.96,0-1.92,0-2.88,0-.16,0-.19,.04-.19,.19,0,3.41,0,6.83,0,10.24,0,.05,0,.1,0,.15,0,.01,0,.02,0,.04h3.36v-.03c.07-.07,.05-.17,.05-.25,0-1.7,0-3.4,0-5.11,0-.43,.04-.87,.17-1.29,.14-.44,.37-.82,.79-1.04,.32-.17,.67-.22,1.03-.22,.82,0,1.34,.4,1.54,1.18,.1,.37,.13,.75,.14,1.14,0,.86,0,1.73,0,2.59,0,.92,0,1.84,0,2.76,0,.08-.02,.17,.05,.23,0,.01,0,.02,0,.03,1.08,0,2.15,0,3.23,0,.03,0,.08,.02,.11,0v-4.79Z"/>
  </g>
</svg>