<?xml version="1.0" encoding="UTF-8"?>
<svg id="Layer_1" data-name="Layer 1" xmlns="http://www.w3.org/2000/svg" viewBox="0 0 78.74 86.8">
  <defs>
    <style>
      .cls-1 {
        fill-rule: evenodd;
      }
    </style>
  </defs>
  <path class="cls-1" d="M57.72,6.8v14.28h14.24v7.48h-18.13c-1.96,0-3.56-1.6-3.56-3.57V6.8h7.46Z"/>
  <path class="cls-1" d="M78.34,22.65c-.35-1.46-.93-2.87-1.72-4.15-.89-1.46-2.11-2.67-3.72-4.28-.08-.08-.17-.17-.26-.26l-7.84-7.86c-.09-.09-.17-.17-.26-.26-1.61-1.61-2.82-2.83-4.28-3.72-1.28-.79-2.68-1.37-4.14-1.72-1.65-.4-3.37-.4-5.65-.4h-7.21c-3,0-5.48,0-7.5,.16-2.1,.16-4.02,.51-5.83,1.39-2.81,1.36-5.09,3.54-6.52,6.21-.92,1.73-1.29,3.56-1.46,5.55-.16,1.92-.16,4.28-.16,7.14v11.51h.01v11.97c0,2.89,0,5.28,.16,7.22,.16,2.02,.52,3.87,1.4,5.61,1.37,2.7,3.57,4.9,6.26,6.27,1.74,.89,3.59,1.24,5.6,1.41,1.94,.16,4.32,.16,7.2,.16h15.66c2.88,0,5.26,0,7.2-.16,2.01-.17,3.86-.52,5.6-1.41,2.7-1.38,4.89-3.57,6.26-6.27,.89-1.74,1.24-3.6,1.4-5.61,.16-1.94,.16-4.33,.16-7.22v-15.63c0-2.28,0-4-.4-5.66h0Zm-7.06,20.82c0,3.08,0,5.17-.13,6.79-.18,2.21-.55,2.9-1,3.54-.59,.85-1.32,1.59-2.15,2.2-.62,.44-1.31,.83-3.46,1.01-1.59,.13-3.64,.14-6.66,.14h-15.22c-3.02,0-5.07,0-6.66-.14-2.15-.18-2.84-.56-3.46-1.01-.83-.6-1.56-1.35-2.15-2.2-.44-.63-.82-1.33-1-3.54-.13-1.62-.13-3.71-.13-6.79v-13.83h-.01v-9.27c0-3.06,0-5.14,.14-6.74,.18-2.18,.56-2.88,1-3.51,.6-.84,1.34-1.59,2.18-2.18,.62-.44,1.32-.82,3.49-1,1.6-.13,3.67-.14,6.72-.14h7.39c3.12,0,3.74,.03,4.56,.28,.52,.15,1.02,.37,1.5,.63,.75,.42,1.21,.84,3.42,3.09l7.71,7.87c2.21,2.26,2.62,2.72,3.04,3.49,.26,.48,.46,.98,.61,1.51,.25,.84,.27,1.46,.27,4.66v15.14h.01Z"/>
  <path d="M34.31,69.14c-9.24,0-16.77-7.55-16.77-16.82V16.04h-1.74c-1.65,.27-4.01,1.41-5.08,5.58v30.69c0,13.05,10.58,23.67,23.59,23.67h21.38c5.54-.99,6.23-6.85,6.23-6.85h-27.61Z"/>
  <path d="M32.29,80.04c-14.09,0-25.55-11.5-25.55-25.64V27.62h-.18c-1.08,.02-6.74,.41-6.56,6.43,0,.15,0,.28,0,.41v19.95C0,72.27,14.49,86.8,32.29,86.8h12.63c5.32-.79,5.62-5.77,5.64-6.63v-.13h-18.27Z"/>
</svg>