<?xml version="1.0" encoding="UTF-8"?>
<svg id="Layer_1" data-name="Layer 1" xmlns="http://www.w3.org/2000/svg" viewBox="0 0 1118.9 216.17">
  <defs>
    <style>
      .cls-1, .cls-2, .cls-3 {
        fill: #fff;
      }

      .cls-4 {
        fill: #7c94ff;
      }

      .cls-2 {
        font-family: Poppins-ExtraBold, Poppins;
        font-size: 43.39px;
        font-weight: 700;
      }

      .cls-3 {
        font-family: Poppins-SemiBold, Poppins;
        font-size: 18.29px;
        font-weight: 600;
      }
    </style>
  </defs>
  <rect x="0" y="0" width="1118.9" height="216.17" rx="107.53" ry="107.53"/>
  <g>
    <path class="cls-1" d="M374.73,62.11c-.97-2.82-2.56-5.4-4.65-7.53-2.38-2.43-5.53-4-9.71-6.09-.23-.11-.46-.23-.69-.34l-16.12-8.06c-.19-.09-.37-.19-.55-.28-3.42-1.71-6.01-3.01-8.8-3.53-2.46-.46-4.98-.46-7.43,0-2.79,.52-5.37,1.82-8.8,3.53-.18,.09-.37,.18-.56,.28l-16.12,8.06c-.23,.12-.46,.23-.69,.34-4.18,2.09-7.33,3.66-9.71,6.09-2.09,2.13-3.68,4.71-4.65,7.53-1.11,3.21-1.11,6.73-1.1,11.41,0,.25,0,.51,0,.77v17.68c0,4.22,0,7.41,.92,10.36,.82,2.6,2.15,5.02,3.93,7.09,2.02,2.35,4.72,4.04,8.3,6.27,.19,.12,.39,.24,.58,.36l16.12,10.08c.22,.14,.44,.28,.66,.41,4,2.51,7.02,4.39,10.36,5.15,2.94,.67,5.99,.67,8.93,0,3.34-.76,6.36-2.65,10.36-5.15,.22-.14,.44-.27,.66-.41l16.12-10.08c.2-.12,.39-.24,.58-.36,3.58-2.23,6.28-3.92,8.3-6.27,1.78-2.07,3.11-4.48,3.93-7.09,.93-2.96,.92-6.14,.92-10.36v-18.45c0-4.67,0-8.2-1.1-11.41Zm-8.44,29.18c0,5.69-.06,7-.58,8.4-.37,1-.89,1.95-1.53,2.81-.94,1.25-1.92,1.94-6.9,5.06l-16.15,10.09c-2.57,1.61-4.2,2.6-5.39,3.25v-11.24h-10.5v10.71c-1.09-.63-2.49-1.49-4.43-2.71l-16.15-10.09c-4.98-3.11-5.96-3.81-6.9-5.06-.64-.86-1.16-1.8-1.53-2.81-.51-1.4-.58-2.7-.58-8.4v-17.02c0-3.3,.02-5.26,.13-6.61l12.63,6.32,4.48-8.96-11.16-5.58c1.08-.59,2.52-1.32,4.51-2.31l16.15-8.07c4.59-2.29,5.68-2.78,7.02-2.97,1.03-.15,2.07-.15,3.1,0,1.35,.2,2.44,.68,7.02,2.97l16.15,8.07c1.83,.91,3.2,1.61,4.25,2.17l-11.44,5.72,4.48,8.96,13.15-6.58c.13,1.35,.15,3.36,.15,6.87v17.02Z"/>
    <path class="cls-1" d="M323.79,88.61v-.15c1.04-.35,1.98-1.03,2.8-2.03,.82-1.01,1.23-2.35,1.23-4.04,0-1.42-.35-2.69-1.04-3.82-.7-1.13-1.72-2.02-3.08-2.68-1.35-.66-2.99-.99-4.9-.99-2.93,0-5.22,.75-6.86,2.26-1.64,1.5-2.51,3.66-2.61,6.47h7.12c.05-.75,.24-1.37,.58-1.88,.34-.51,.86-.76,1.58-.76,.65,0,1.16,.19,1.53,.58,.37,.39,.56,.96,.56,1.73,0,1.02-.33,1.7-.99,2.03-.66,.34-1.46,.49-2.4,.47h-1.27v5.93h1.3c1.37,0,2.35,.22,2.96,.67,.61,.45,.91,1.14,.91,2.09,0,.75-.21,1.34-.62,1.79-.41,.45-.98,.67-1.7,.67-.94,0-1.65-.27-2.12-.82-.47-.55-.68-1.32-.63-2.31h-7.12c.07,3.11,1.01,5.41,2.81,6.92,1.8,1.5,4.26,2.26,7.36,2.26,1.89,0,3.52-.34,4.88-1.01,1.37-.67,2.41-1.6,3.13-2.8,.72-1.19,1.08-2.57,1.08-4.14,0-3.16-1.5-5.29-4.51-6.41Z"/>
    <path class="cls-1" d="M350.01,77.01c-2.08-1.16-4.49-1.73-7.25-1.73h-10.4v27.46h10.4c2.73,0,5.14-.59,7.21-1.77,2.07-1.18,3.68-2.81,4.81-4.89,1.13-2.08,1.7-4.44,1.7-7.09s-.56-5.05-1.68-7.13c-1.12-2.08-2.72-3.69-4.79-4.85Zm-2.78,17.16c-1.22,1.22-2.9,1.83-5.03,1.83h-2.53v-14.1h2.53c2.14,0,3.81,.62,5.03,1.85,1.22,1.23,1.83,2.98,1.83,5.24s-.61,3.96-1.83,5.18Z"/>
  </g>
  <g>
    <path class="cls-1" d="M167.58,99.04c3.53,0,9.94-.77,15.71-5.58,7.23-6.02,11.06-16.28,11.37-30.48l.07-3.01-3,.22c-12.7,.93-36.51,8.27-35.78,29.42v.14s-28.85,28.85-28.85,28.85l9.14,9.14,28.85-28.85c.38,.05,1.25,.14,2.49,.14Zm8.38-29.3c.07-.03,.15-.06,.22-.09-.19,.61-.28,1.26-.25,1.97,.09,1.85,1.57,3.67,3.43,3.73,1.04,.03,2.03-.45,3.06-.56,1.04-.11,2.31,.39,2.41,1.43,.06,.63-.34,1.2-.61,1.77-.46,.95-.51,2.28,.35,2.89,.33,.23,.73,.31,1.13,.27-1.49,3.32-3.44,6.02-5.86,8.06-5.15,4.33-11.13,4.45-13.28,4.33l-5.16-5.16c.12-8.2,5.01-14.47,14.56-18.63Z"/>
    <path class="cls-1" d="M194.42,38.1h-43.66c-11.3,0-20.5,9.2-20.5,20.5v43.24l10.96-10.96V58.6c0-5.26,4.28-9.54,9.54-9.54h43.66c5.26,0,9.54,4.28,9.54,9.54v43.66c0,5.26-4.28,9.54-9.54,9.54h-29.3l-9.96,10.96h39.26c11.3,0,20.5-9.2,20.5-20.5V58.6c0-11.3-9.2-20.5-20.5-20.5Z"/>
  </g>
  <g>
    <polygon class="cls-1" points="625.37 109.64 628.93 109.64 630.98 103.5 637.11 101.46 637.11 97.9 630.98 95.86 628.93 89.72 625.37 89.72 623.33 95.86 617.19 97.9 617.19 101.46 623.33 103.5 625.37 109.64"/>
    <path class="cls-1" d="M648.48,41.91h-43.66c-11.3,0-20.5,9.2-20.5,20.5v43.24l10.96-10.96v-5.41l9.47-9.09,9.72,9.61,21.28-19.41,22.28,21.44v14.24c0,5.26-4.28,9.54-9.54,9.54h-29.3l-9.96,10.96h39.26c11.3,0,20.5-9.2,20.5-20.5V62.41c0-11.3-9.2-20.5-20.5-20.5Zm-12.56,15.94l-21.2,19.34-9.88-9.77-9.56,9.18v-14.19c0-5.26,4.28-9.54,9.54-9.54h43.66c5.26,0,9.54,4.28,9.54,9.54v16.71l-22.11-21.28Z"/>
    <path class="cls-1" d="M604.76,96.39l-30.75,30.75,10.66,10.66,30.75-30.75-10.66-10.66Zm-4.38,10.2l4.23-4.23,4.93,4.93-4.23,4.23-4.93-4.93Z"/>
  </g>
  <g>
    <path class="cls-1" d="M502.58,62.56l2.91-8.73h5.06l2.91,8.73,8.73,2.91v5.06l-8.73,2.91-2.91,8.73h-5.06l-2.91-8.73-8.73-2.91v-5.06l8.73-2.91Z"/>
    <path class="cls-1" d="M456,108.72l-3.42,11.98h-14.59l20.71-67.83h16.14l20.71,67.83h-14.75l-3.42-11.98-3.59-12.76-7.09-24.83-7.01,24.83-3.67,12.76Z"/>
    <path class="cls-1" d="M514.8,88.17v32.53h-13.94v-32.53h13.94Z"/>
  </g>
  <path class="cls-4" d="M265.59,90.42h-9.16v9.44h-10.69v-9.44h-9.21v-10.07h9.21v-9.5h10.69v9.5h9.16v10.07Z"/>
  <path class="cls-4" d="M426.65,90.42h-9.16v9.44h-10.69v-9.44h-9.21v-10.07h9.21v-9.5h10.69v9.5h9.16v10.07Z"/>
  <path class="cls-4" d="M565.27,94.23h-9.16v9.44h-10.69v-9.44h-9.21v-10.07h9.21v-9.5h10.69v9.5h9.16v10.07Z"/>
  <g>
    <rect class="cls-4" x="690.74" y="71.79" width="28.88" height="9.96"/>
    <rect class="cls-4" x="690.74" y="89.72" width="28.88" height="9.96"/>
  </g>
  <text class="cls-2" transform="translate(745.38 74.89)"><tspan x="0" y="0">The perfect </tspan><tspan x="12.13" y="50.73">Technique</tspan></text>
  <text class="cls-3" transform="translate(104.33 155.9)"><tspan x="0" y="0">Hyperrealistic </tspan><tspan x="16.93" y="21.95">illustration</tspan></text>
  <text class="cls-3" transform="translate(288.18 155.9)"><tspan x="0" y="0">Modeling</tspan></text>
  <text class="cls-3" transform="translate(441.18 159.71)"><tspan x="0" y="0">Artificial</tspan><tspan x="-15.62" y="21.95">intelligence</tspan></text>
  <text class="cls-3" transform="translate(596.16 159.71)"><tspan x="0" y="0">Digital</tspan><tspan x="-6.18" y="21.95">retouch</tspan></text>
</svg>