<?xml version="1.0" encoding="utf-8"?>
<!-- Generator: Adobe Illustrator 27.0.0, SVG Export Plug-In . SVG Version: 6.00 Build 0)  -->
<svg version="1.1" id="Layer_1" xmlns="http://www.w3.org/2000/svg" xmlns:xlink="http://www.w3.org/1999/xlink" x="0px" y="0px"
	 viewBox="0 0 142 131.3" style="enable-background:new 0 0 142 131.3;" xml:space="preserve">
<style type="text/css">
	.st0{fill:#C2D0D7;}
	.st1{fill:#CD652A;}
	.st2{fill:#FFC52A;}
	.st3{fill:#B17052;}
	.st4{fill:#EC2224;}
	.st5{fill:#EB1D25;}
	.st6{fill:#FFFFFF;}
</style>
<g>
	<path d="M96.6-307.5"/>
	<path id="XMLID_1_" class="st0" d="M64.9-336.9"/>
	<polygon class="st1" points="83.5,-302.2 82,-306.5 90.5,-320.3 89.9,-322.7 102.4,-341.2 108.6,-350.3 111.2,-353 123.3,-344.4 
		112.3,-330.2 101.7,-315.8 101.5,-315 105.1,-311.6 108.6,-304.7 109.2,-298.3 108.5,-294 97.5,-293.1 88.8,-293.9 83.1,-298.1 
		83.3,-299.7 84.8,-301.6 	"/>
	<g>
		<polygon class="st2" points="65.3,-278.3 80.2,-295.2 84.8,-301.6 83.6,-302.6 82,-306.2 81.1,-312 77.3,-308.9 77.4,-312.5 
			73.6,-313.7 72.1,-317.3 73,-323.2 75,-339.7 80.5,-352.2 83.8,-359.6 40.6,-359.4 37.5,-355.8 33.8,-355 34,-348.2 8.3,-346.2 
			33.2,-342.7 34.3,-339.1 10.7,-337.2 31.8,-334.6 28.4,-332.8 30.6,-331 12.6,-327.9 33.1,-325.3 33.3,-322 11.3,-313.4 
			33.6,-315.1 34.5,-311.6 13,-301.8 34.3,-304.3 35.5,-302.1 11,-289.1 35.6,-295.1 38.1,-292.8 21.2,-281.3 43,-288.7 
			40.9,-282.3 48.7,-286.5 48.9,-283.1 59.5,-283 62.4,-282.9 62.4,-278.3 		"/>
		<polygon class="st2" points="92.8,-321.1 100.6,-321 98.5,-328.6 107.6,-330 104.5,-337.5 113.6,-337.3 110.4,-344.4 120,-344.3 
			110,-347.3 107.6,-344.1 110.3,-339.3 103.5,-339.1 101.7,-336.8 104.2,-331.9 97.2,-330.2 96,-328.1 98,-323.2 93.7,-323.1 		"/>
		<polygon class="st2" points="131.4,-330 131.4,-360.5 109.3,-360.5 116.2,-356.9 116.4,-354.7 126.7,-347.8 128.8,-343.1 
			126.4,-340.7 126.7,-336.6 		"/>
	</g>
	<path class="st3" d="M107.8-312.2c3.1,4.9,9.3,7.4,15.1,6.8c0.6-0.1,1.2-0.1,1.8-0.4c1-0.5,1.7-1.5,2-2.5c0.3-1.1,0.3-2.2,0.1-3.3
		c-0.1-0.5-0.2-1.1,0-1.6c0.2-0.5,0.7-0.8,1-1.3c0.5-0.7,0.6-1.7,0.2-2.5c0.9-0.4,1.7-1,2.3-1.7c0.3-0.3,0.5-0.6,0.4-1
		c-0.1-0.3-0.4-0.4-0.7-0.6c-0.9-0.5-1.6-1.3-2-2.3c0.5-0.2,1-0.4,1.4-0.8c0.4-0.4,0.6-1,0.4-1.5c-0.1-0.3-0.3-0.5-0.4-0.7
		c-0.9-1.1-1.9-2.1-2.8-3.2c-1.2-1.4-2.5-2.9-2.9-4.8c-0.2-1-0.1-2.1-0.2-3.1c-0.1-1.8-0.6-3.5-1.4-5.1c-3.2,3.1-6.3,6.4-9.1,9.9
		c-0.9,1.1-1.8,2.3-2.4,3.6c-0.6,1.3-0.8,2.9-0.3,4.3c0.3,0.8,0.9,1.7,0.6,2.6c-0.2,0.5-0.6,0.9-1,1.2c-1,0.8-3.3,2-3.7,3.3
		c-0.2,0.8,0,1.7,0.2,2.5C107-313.9,107.8-312.8,107.8-312.2z"/>
	<path class="st4" d="M73.1-316.8c0.2,0.1,7.6-3.7,7.6-3.7l9.2-0.5v-1.7l-3.5-1.1l4.8-0.2l19.4-29.3l-12.4-5.8l-12.9-0.2l-6,9.1
		l-5.1,16.4l-1.6,13.2C72.7-320.7,72.3-317.3,73.1-316.8z"/>
	<path class="st5" d="M128.1-319.1c-1.3,1.2-2.7,2.3-4.3,2.7c0.1,1,0.3,2.2,1.2,2.8c0.6,0.4,1.5,0.4,2.1-0.1c0.6-0.4,0.9-1.3,0.6-2
		c-0.1-0.2-0.2-0.4-0.1-0.6c0-0.3,0.4-0.5,0.6-0.7c0.4-0.2,0.8-0.4,1.1-0.6c0.4-0.2,0.8-0.5,1-0.9c0.3-0.5,0-1.1-0.5-1.1
		C129.2-319.6,128.6-319.6,128.1-319.1z"/>
	<path class="st4" d="M127.4-300.7c-3.1,1.7-11.2-0.2-11.2-0.2c-1.4,1.4-3.3,11.9-3.3,11.9l4.3,12.1h14.3v-31.9
		C131.4-308.8,131.2-302.8,127.4-300.7z"/>
	<g>
		<polygon points="92,-306.9 85.7,-299.9 88.1,-297.7 		"/>
		<polygon points="94.1,-304.9 88.1,-297.7 91.3,-296.4 		"/>
		<path d="M96-304.1l-1.2-0.5l0.8,9.5l2.2-7.5l2.2,7.2l0.5-7.9l3.5,7.3l-0.8-8.9l2.1-1.5l-1.2-1.8c-0.6,1.9-3.8,3.8-3.8,3.8
			C98.4-303.4,96-304.1,96-304.1z"/>
		<path d="M131.4-319.8c0,0-2.1-0.7-2.6-1.9l1.7-0.8c0,0,2-0.8,0.2-2.6c0,0-5.4-4.2-6.5-7.1c0,0,0-0.1,0-0.2c2-0.6,2.6-2,2.6-2
			c-0.6,0.7-1.5,1-2.4,1.1c0-0.1,0-0.2,0.1-0.3c0.2-0.1,0.5-0.3,0.7-0.4c0.2-0.1,0.3-0.3,0.3-0.5c-0.2,0.2-0.5,0.3-0.8,0.4
			c-0.1,0-0.1,0-0.2,0.1c0.3-1.9,0.4-5-0.9-7.8c0.6-0.7,1-1.3,1.1-1.5c0,0-0.4-1.6-1.7-2.6l-10.8-7.1l0.1-1.4l-11.6-5.7H83.2h-1.6
			h-39c0,0-32.5-0.8-44.5,3.1c0,0,11.6,4.6,28.2,6.5c-9.6,0.4-21.9,1-28.2,2.2c0,0,5.8,3.8,17.6,5.9c-4.3,0.7-10.3,2-17.8,4.5
			c0,0,7.3,3.4,20,4.8c-5.8,1-14.8,2.9-20,5.6c0,0,11.6,4.8,29.8,4.6c-7.1,2-19.3,5.7-23.6,8l-6.1,4.8l12.4,3.1
			c0,0,7.2-1.8,17.2-4.4c-5.8,2.5-16.2,7-22.4,9.8l-7.5,6.2l11.1,0.3c0,0,6-2.1,14.4-5c-5,2.7-14.3,7.8-17.5,10.1c0,0-5,4.8-7.7,13
			l19.7-8.4c0,0,0.9-0.4,2.6-1.1c-3.4,2.5-7.4,5.9-10.7,9.6h9.5c0,0,7.2-1,17.3-4.7c-1.6,1.3-3.4,2.9-5,4.7H43c0,0,4.5-1,10.4-3.4
			c-0.5,1-0.9,2.1-1.1,3.3h11l-0.1,0.1l17.8-0.1c0,0,1.2-15.6,12.1-15.8c0,0,8-0.7,10.2,4.7c0,0,2.5,5.8,3.8,11.2h6.3l-3.9-11.5v0
			c0,0,1-16.8,6.5-16.1c1.8,0.3,5.4,0.9,8.9,0.9c0,0,1.8-0.1,2.5-3.6c0,0,0.6-2.1,0.1-4.9c0,0,2.6-1.8,1.5-4l2.5-1.7
			C131.4-317.7,132.3-318.6,131.4-319.8z M86.1-358.7l11.4,0.6l11.3,5.2c0,0-0.2,0.2-0.5,0.7l-12-4.1l10.5,6.3
			c-0.2,0.3-0.4,0.6-0.6,1l-11-4.9l9.9,6.6c-0.2,0.3-0.5,0.7-0.7,1.1l-10.6-4.9l9.5,6.7c-0.3,0.4-0.5,0.8-0.8,1.2l-10.1-5.1l8.9,7
			c-0.1,0.2-0.2,0.4-0.4,0.6l-10.1-4.4l9.1,6c-0.1,0.1-0.1,0.2-0.2,0.2l-10.5-3.2l9.4,4.9c-0.1,0.1-0.1,0.2-0.2,0.3l-10.4-2.2
			l9.3,3.9c-0.2,0.4-0.5,0.8-0.7,1.1l-10.1-1.3l8.7,3.5c-0.2,0.4-0.5,0.7-0.7,1.1l-9.9-1.2l8.6,3.2c-0.1,0.2-0.2,0.4-0.4,0.6
			l-9.7,0.1l8.6,1.8c-0.4,0.6-0.7,1.2-1,1.7l-9.1,0.1l7.6,2.8c0,0,0,0,0,0l-8.8,0.2l-6.8,3.6C75.8-343,83.9-355.6,86.1-358.7z
			 M42.4-358.9h38.7l-0.8,3c-6.1-0.3-27.5-1.2-40.2,0.1L42.4-358.9z M53.8-355l5.4,2.3l-1.4-2.3c0,0,15.9-0.5,21.5,0.9l0.2,0.1
			l-2.8,5.2c-3.3-0.9-13.9-3-35.6-2.3c0,0-3.2-1.7-4.6-2.9C36.6-354,46.1-355,53.8-355z M12.4-346l25.1-0.6l-1.5-3.1l0.3-0.1
			c1.5,0.1,3,0.1,4.5,0.1c0,0,26.9-0.8,35.2,2.9l-1,4c-3.1-0.1-10.1-0.2-15.3-0.4c0,0-13.7-0.6-24.8,0l2-1.4
			C36.9-344.6,19.7-345.2,12.4-346z M16.6-337.3l20.5-1.4l-0.4-2.6c2.7-0.1,6.2-0.2,9.5-0.3c1.4,1.2,3.7,3.2,3.7,3.2l-1.9-3.3
			c4.6-0.1,8.6-0.2,9.9-0.2l6.5,3.2l-2.2-3.1c0,0,7-0.4,12.2,0.7l-1.6,4.4l-5.5-0.6c0,0-25.5,2.7-29.8,2.4l-0.5-2
			C37.2-336.7,21.5-336.9,16.6-337.3z M18.7-328.1c3.8-0.4,11.5-1.3,16.9-1.9l-3.6-2.6c2.1-0.1,5.5-0.4,9.4-0.7l5.2,2.9l-2.7-3.1
			c3.2-0.2,6.6-0.5,9.9-0.8c1.7,0.6,5.7,2.3,5.7,2.3l-2.4-2.6c4-0.4,7.7-0.8,10-1.1l4.8,1.1l0.2,2.6c0,0-31.5,6.1-36.9,7.1l1.4-3.4
			C27.5-327.7,18.7-328.1,18.7-328.1z M17.5-314.6c9.3-3,18.6-5.6,21.7-6.4l-4.1-2.2c0.2,0,0.4,0,0.6,0l7.3-1.4l5.9,2.6l-3.2-3.1
			l8.6-1.6l4.4,2.3l-2.3-2.7l11.5-2.1l3.5,1.4l-0.4,2.2c0,0-22.7,6.7-31.2,9.3l0.4-3.2C32-317.5,17.5-314.6,17.5-314.6z M18.9-303.8
			l23.5-8.2l-5.6-1.7c5.1-1.4,10.5-2.9,15.8-4.4c3,0.1,8.5,0.3,8.5,0.3l-4.7-1.5c3.3-1,6.5-2,9.5-2.9l3.6-0.9l2.4,2.5v1.7
			c0,0-22.6,8.8-31.2,11.3l1.8-2.5L18.9-303.8z M19.4-292c7.6-4.2,18.4-8.9,23.1-10.9l-4.8-2.1c6.4-2.2,12.9-4.5,18.5-6.4l4.2,1.1
			l-2.3-1.7c5.6-1.9,10-3.4,12.2-4.1l2.3,1.7l0.1,1c-8.3,4.8-21,11.8-33.7,17.4l4.1-5.2C35.1-298.2,19.4-292,19.4-292z M29.6-285.2
			c5-3.1,12.8-7.4,17.2-9.9c-1.3-0.3-2.9-0.7-4.5-0.8c3.7-1.7,7.7-3.5,11.6-5.5l5.1,1.3l-3.3-2.2c1.9-0.9,3.8-1.9,5.7-2.8l4.9,1
			l-3.1-2c3.7-1.9,7.3-3.9,10.6-5.8l2.9,0.5l-1.2,3.5c-3.2,2.2-15.2,10.4-29.6,20.4l2.9-6.4C41.5-290.5,29.6-285.2,29.6-285.2z
			 M53.3-284.7c6.5-5.3,15.2-13.2,15.2-13.2c-2.1,1.6-12.7,9.3-16.5,12c0.4-1.3,0.8-3.1,0.9-4.3c8-5.4,20.2-13.7,24.9-16.9l2.5-3
			l-0.7,4.7c-2,2-13.6,13.6-20.9,19.3L53.3-284.7z M107.9-295.1c-2,0.6-7.3,1.8-14.9,0.8c0,0-5.1-1-9-4.8c0.3-0.5,0.7-1.1,1-1.6
			l0.7,0.8l9.6-17.9l-11.9,15.5l0.4,0.4c-1.5,1.9-4.9,6.4-8.7,10.9l-1.6-3.8l0.4,5.2c-3.1,3.7-6.4,7.4-9,9.7l0.3-5.8l-4.2,0.8
			l20.7-20l1.6,2.5l9.1-16.4l-9.8,12.5l7.4-12.7v0v0l1.3-0.8l-0.8-2.5c0,0,12.5-20.6,20.4-29.5l11,7.6c0,0-12.7,14.8-22,28.9
			C100.1-315.1,110.8-306.9,107.9-295.1z M129.1-318l-3.9,1.6c0,0,2.6-0.2,2.4,1.6c0,0-0.5,1-2.5,1.3c0,0,1.3,0.7,1,3.2
			c0,0-0.2,4.8-3.4,4.9c0,0-3.1,0.2-7-1.5c-0.1-0.1-0.2-0.2-0.2-0.2s-0.4-0.1-1.1-0.5c-1.4-0.8-2.9-1.9-4.4-3.3
			c-0.6-0.7-1.3-1.5-1.9-2.5c-0.1-0.4-0.1-0.9,0-1.4c0.2-1.6,1.2-3,2.5-3.8c0.9-0.5,2.1-0.9,2.6-1.9c0.3-0.8,0-1.7-0.4-2.4
			c-0.4-0.7-0.9-1.4-1.2-2.2c-0.2-0.6-0.2-1.2,0-1.7c1.8-2.9,4-5.9,6.2-8.6c0,0,0,0,0.1,0c0.8,0,1.5,0.2,2.3,0.4
			c0.3,0.1,0.7,0.2,1,0.3c0.4,0.1,0.9,0,1.2-0.4c0.3-0.3,0.1-0.6-0.3-0.7c-0.9-0.4-2.1-0.6-3-0.5c-0.2,0-0.3,0-0.5,0.1
			c0.7-0.8,1.5-1.6,2.2-2.3c0,0,0.7-0.8,1.5-1.7c0.6,1,1.2,2.9,1,6.6c-0.3,0.1-0.5,0.2-0.8,0.3c0.2-0.2,0.4-0.4,0.5-0.7
			c-0.2-0.1-0.3,0-0.5,0.1c-0.5,0.3-1,0.5-1.5,0.8c-0.1,0-0.1,0-0.2,0c0.1-0.3,0.2-0.6,0.2-0.8c-0.3,0.4-0.7,0.7-1.1,1.1
			c-2.2,0.7-3.1,2.1-3.1,2.1c0.8,0.6,4.4,0.5,4.4,0.5c1.7,0,1.6-1.3,1.6-1.3c0-0.2,0-0.4,0-0.6c0.1,0,0.3,0,0.4,0
			c0.4,0.9,2.7,5.3,5.7,7.5c0,0,1.1,1.1-0.4,1.8l-1.6,0.8c0,0,0.7,1.4,1.9,2C128.9-320.1,131.3-318.9,129.1-318z"/>
		<path d="M125.8-323c0-0.2,0.1-0.4,0.1-0.5c0-0.2-0.3-0.5-0.4-0.3l0,0c-0.3,0.4-0.5,0.9-0.5,1.4c0.1,0.5,0.6,0.9,1.1,0.8
			c0.1,0,0.2-0.1,0.2-0.2c0-0.1-0.1-0.1-0.1-0.2C125.9-322.2,125.7-322.6,125.8-323z"/>
	</g>
	<g>
		<circle class="st6" cx="97" cy="-309.7" r="2.6"/>
		<path class="st6" d="M84.6-277.2H103l-2.5-7.9c0,0-1.7-4.3-5.6-4.8c0,0-5.7,0-8.1,4.6C86.8-285.3,84.9-280,84.6-277.2z"/>
	</g>
</g>
<g>
	<g>
		<path class="st4" d="M49.6,4.6l5.5-4.2h6.2v14.7h-6.4V7l-5.3,4l-5.3-4v8.2h-6.4v-13l-1.7-1.7h7.9L49.6,4.6z"/>
		<path class="st4" d="M76.6,0.5c3.1,0,4.6,1,4.6,3.1v11.6h-6.4v-2.9h-5l0,2.9h-6.4V4.5c0-1.3,0.4-2.1,1.3-2.4l-1.5-1.6L76.6,0.5z
			 M69.8,3.7v5.4h5V3.7H69.8z"/>
		<path class="st4" d="M89.8,0.5v11.5h11.4v3.2H83.4v-13l-1.7-1.7H89.8z"/>
		<path class="st4" d="M112.1,3.7v11.5h-6.4V3.7h-3.8l-2.6,1.2V0.5h19.2v4.4l-2.6-1.2H112.1z"/>
		<path class="st4" d="M133.8,0.5c3.1,0,4.6,1,4.6,3.1v11.6H132v-2.9h-5l0,2.9h-6.4V4.5c0-1.3,0.4-2.1,1.3-2.4l-1.5-1.6L133.8,0.5z
			 M127,3.7v5.4h5V3.7H127z"/>
	</g>
	<path d="M23.9,10.7v25.6l4.4,1.3v1.7H9.4v-1.7l4.4-1.3V10.7H8.1l-2.2,2.5H2.7V5.9H35v7.4h-3.2l-2.2-2.5H23.9z"/>
	<path d="M55.8,20.9c4.8,0,7.2,1.3,7.2,3.8v14.5H53v-3.6h-7.8l0,3.6h-10V25.8c0-1.7,0.7-2.7,2-3l-2.4-2L55.8,20.9z M45.2,24.9v6.7
		H53v-6.7H45.2z"/>
	<polygon points="72.6,17.6 75.2,16.8 64.7,16.8 61.1,19.5 70.2,19.5 	"/>
	<polygon points="66.3,22.9 66.4,39.2 76.4,39.2 76.4,20.9 63.8,20.9 	"/>
	<path d="M89.7,29v10.2h-10V22.9l-2.6-2.1h12.3l8.1,4.9v-4.9h10v18.4h-10v-5.5L89.7,29z"/>
	<path d="M131.4,20.9c4.8,0,7.2,1.3,7.2,3.8v14.5h-10v-3.6h-7.8l0,3.6h-10V25.8c0-1.7,0.7-2.7,2-3l-2.4-2L131.4,20.9z M120.8,24.9
		v6.7h7.8v-6.7H120.8z"/>
	<g>
		<path d="M103.2,99.5"/>
		<path id="XMLID_00000016044657660415842230000009141271169859329684_" class="st0" d="M71,69.6"/>
		<polygon class="st1" points="89.9,104.9 88.4,100.5 97,86.5 96.4,84 109.1,65.3 115.5,56 118.1,53.2 130.4,62 119.2,76.4 
			108.5,91 108.2,91.9 111.8,95.4 115.5,102.3 116,108.8 115.3,113.2 104.2,114.2 95.3,113.3 89.5,109 89.7,107.4 91.2,105.4 		"/>
		<g>
			<polygon class="st2" points="71.5,129.2 86.6,112 91.2,105.4 90,104.5 88.4,100.8 87.4,94.9 83.6,98.1 83.7,94.4 79.8,93.2 
				78.4,89.5 79.2,83.5 81.3,66.7 86.8,54 90.2,46.5 46.3,46.8 43.2,50.4 39.4,51.2 39.6,58.1 13.5,60.2 38.8,63.7 39.9,67.3 
				15.9,69.3 37.3,71.9 34,73.7 36.1,75.6 17.9,78.7 38.7,81.4 38.9,84.7 16.5,93.5 39.2,91.8 40.1,95.3 18.2,105.3 39.9,102.8 
				41.1,105 16.3,118.1 41.2,112.1 43.8,114.4 26.6,126.1 48.7,118.6 46.7,125 54.5,120.8 54.8,124.3 65.5,124.4 68.4,124.4 
				68.4,129.2 			"/>
			<polygon class="st2" points="99.4,85.7 107.3,85.8 105.2,78 114.4,76.6 111.3,69 120.5,69.2 117.2,62 127,62.1 116.9,59 
				114.4,62.3 117.1,67.1 110.2,67.4 108.4,69.7 110.9,74.6 103.9,76.4 102.6,78.5 104.7,83.5 100.2,83.7 			"/>
			<polygon class="st2" points="138.6,76.6 138.6,45.7 116.1,45.7 123.1,49.3 123.4,51.5 133.8,58.5 136,63.3 133.5,65.7 
				133.8,69.9 			"/>
		</g>
		<path class="st3" d="M114.7,94.7c3.2,5,9.5,7.5,15.4,7c0.6-0.1,1.2-0.2,1.8-0.4c1-0.5,1.7-1.5,2-2.6c0.3-1.1,0.3-2.2,0.1-3.4
			c-0.1-0.5-0.2-1.1,0-1.6c0.2-0.5,0.7-0.8,1-1.3c0.5-0.7,0.6-1.8,0.2-2.5c0.9-0.4,1.7-1,2.4-1.7c0.3-0.3,0.5-0.6,0.4-1
			c-0.1-0.3-0.4-0.4-0.7-0.6c-0.9-0.5-1.6-1.4-2-2.3c0.5-0.2,1-0.4,1.4-0.8c0.4-0.4,0.6-1,0.4-1.5c-0.1-0.3-0.3-0.5-0.5-0.7
			c-0.9-1.1-1.9-2.2-2.8-3.3c-1.3-1.4-2.6-3-3-4.8c-0.2-1-0.1-2.1-0.2-3.2c-0.1-1.8-0.6-3.6-1.4-5.2c-3.3,3.1-6.4,6.5-9.3,10
			c-0.9,1.2-1.9,2.3-2.4,3.7c-0.6,1.4-0.8,2.9-0.3,4.3c0.3,0.9,0.9,1.7,0.6,2.6c-0.2,0.5-0.6,0.9-1,1.2c-1.1,0.8-3.3,2-3.7,3.3
			c-0.2,0.8,0,1.8,0.2,2.5C113.8,93,114.7,94.1,114.7,94.7z"/>
		<path class="st4" d="M79.3,90c0.2,0.1,7.7-3.8,7.7-3.8l9.4-0.5V84l-3.5-1.1l4.8-0.2l19.7-29.8L104.8,47l-13.1-0.2l-6.1,9.3
			l-5.2,16.6l-1.6,13.4C78.9,86.1,78.5,89.5,79.3,90z"/>
		<path class="st5" d="M135.2,87.7c-1.3,1.2-2.7,2.4-4.4,2.8c0.1,1.1,0.3,2.3,1.2,2.8c0.6,0.4,1.5,0.4,2.1-0.1
			c0.6-0.5,0.9-1.3,0.7-2c-0.1-0.2-0.2-0.4-0.1-0.6c0-0.3,0.4-0.5,0.7-0.7c0.4-0.2,0.8-0.4,1.2-0.6c0.4-0.2,0.8-0.5,1.1-0.9
			c0.3-0.5,0-1.1-0.5-1.1C136.3,87.2,135.8,87.2,135.2,87.7z"/>
		<path class="st4" d="M134.5,106.4c-3.1,1.8-11.4-0.2-11.4-0.2c-1.5,1.5-3.4,12.1-3.4,12.1l4.4,12.3h14.5V98.2
			C138.6,98.2,138.4,104.2,134.5,106.4z"/>
		<g>
			<polygon points="98.6,100 92.1,107.2 94.6,109.4 			"/>
			<polygon points="100.7,102.1 94.6,109.4 97.9,110.8 			"/>
			<path d="M102.6,102.9l-1.2-0.5l0.9,9.6l2.3-7.6l2.3,7.3l0.5-8.1l3.5,7.4l-0.9-9.1l2.1-1.6l-1.3-1.9c-0.6,2-3.9,3.8-3.9,3.8
				C105,103.6,102.6,102.9,102.6,102.9z"/>
			<path d="M138.6,87c0,0-2.1-0.7-2.7-1.9l1.7-0.8c0,0,2-0.8,0.2-2.7c0,0-5.5-4.3-6.6-7.3c0,0,0-0.1,0-0.2c2.1-0.6,2.6-2,2.6-2
				c-0.6,0.8-1.5,1.1-2.4,1.2c0-0.1,0-0.2,0.1-0.3c0.2-0.1,0.5-0.3,0.7-0.4c0.2-0.1,0.4-0.3,0.3-0.5c-0.2,0.2-0.5,0.3-0.8,0.4
				c-0.1,0-0.1,0-0.2,0.1c0.3-1.9,0.4-5.1-0.9-7.9c0.6-0.7,1-1.3,1.1-1.5c0,0-0.4-1.6-1.7-2.6l-11-7.2l0.1-1.4L107.4,46H89.6H88
				H48.4c0,0-33-0.8-45.2,3.1c0,0,11.8,4.6,28.7,6.6c-9.7,0.4-22.2,1.1-28.7,2.3c0,0,5.9,3.8,17.9,6c-4.4,0.7-10.5,2.1-18,4.6
				c0,0,7.4,3.4,20.3,4.9c-5.9,1-15,3-20.3,5.7c0,0,11.8,4.9,30.3,4.6c-7.2,2.1-19.6,5.8-23.9,8.1l-6.2,4.9l12.6,3.2
				c0,0,7.4-1.8,17.5-4.5c-5.9,2.5-16.4,7.1-22.8,10l-7.6,6.3l11.3,0.4c0,0,6.1-2.2,14.6-5.1c-5.1,2.7-14.6,7.9-17.8,10.3
				c0,0-5,4.9-7.9,13.3l20.1-8.6c0,0,1-0.4,2.7-1.1c-3.4,2.6-7.5,6-10.9,9.8h9.6c0,0,7.3-1,17.6-4.7c-1.6,1.3-3.4,2.9-5.1,4.7h11.8
				c0,0,4.6-1,10.5-3.5c-0.5,1-1,2.1-1.1,3.4h11.1l-0.1,0.1l18.1-0.1c0,0,1.2-15.8,12.3-16.1c0,0,8.1-0.7,10.4,4.7
				c0,0,2.5,5.9,3.8,11.3h6.5l-4-11.7v0c0,0,1-17.1,6.6-16.4c1.9,0.3,5.4,0.9,9.1,0.9c0,0,1.9-0.1,2.6-3.7c0,0,0.6-2.1,0.1-5
				c0,0,2.7-1.9,1.5-4l2.5-1.7C138.6,89.1,139.6,88.2,138.6,87z M92.6,47.5l11.6,0.6l11.5,5.2c0,0-0.2,0.2-0.5,0.7L103,49.8
				l10.7,6.4c-0.2,0.3-0.4,0.6-0.7,1l-11.2-5l10,6.7c-0.2,0.3-0.5,0.7-0.7,1.1l-10.8-5l9.6,6.8c-0.3,0.4-0.5,0.8-0.8,1.2l-10.3-5.2
				l9,7.1c-0.1,0.2-0.3,0.4-0.4,0.6l-10.3-4.5l9.3,6.1c-0.1,0.1-0.1,0.2-0.2,0.2L95.7,64l9.6,5c-0.1,0.1-0.1,0.2-0.2,0.3L94.6,67
				l9.4,4c-0.2,0.4-0.5,0.8-0.7,1.1L93,70.8l8.8,3.5c-0.2,0.4-0.5,0.7-0.7,1.1l-10-1.2l8.7,3.3c-0.1,0.2-0.2,0.4-0.4,0.6l-9.9,0.1
				l8.7,1.8c-0.4,0.6-0.7,1.2-1,1.7l-9.3,0.1l7.8,2.9c0,0,0,0,0,0l-9,0.2l-6.9,3.6C82.1,63.4,90.3,50.6,92.6,47.5z M48.2,47.3h39.4
				l-0.8,3c-6.2-0.3-27.9-1.2-40.9,0.1L48.2,47.3z M59.8,51.2l5.5,2.3l-1.4-2.3c0,0,16.1-0.5,21.9,0.9l0.2,0.1l-2.9,5.3
				c-3.4-0.9-14.1-3-36.1-2.3c0,0-3.3-1.7-4.7-3C42.3,52.3,52,51.2,59.8,51.2z M17.7,60.4l25.5-0.6l-1.6-3.1l0.3-0.1
				c1.5,0.1,3,0.1,4.6,0.1c0,0,27.4-0.9,35.8,3l-1,4c-3.2-0.1-10.3-0.2-15.6-0.4c0,0-13.9-0.6-25.2,0l2-1.4
				C42.6,61.8,25,61.2,17.7,60.4z M21.9,69.2l20.9-1.4l-0.4-2.6c2.8-0.1,6.3-0.2,9.7-0.3c1.4,1.2,3.8,3.3,3.8,3.3l-1.9-3.3
				c4.6-0.1,8.8-0.2,10.1-0.2l6.6,3.3l-2.2-3.1c0,0,7.1-0.4,12.4,0.7L79.2,70l-5.5-0.6c0,0-25.9,2.7-30.3,2.5l-0.5-2
				C42.9,69.8,26.9,69.6,21.9,69.2z M24.1,78.5c3.9-0.4,11.6-1.3,17.2-1.9L37.6,74c2.1-0.1,5.6-0.4,9.6-0.7l5.3,2.9l-2.8-3.1
				c3.2-0.2,6.7-0.5,10-0.8c1.8,0.7,5.8,2.3,5.8,2.3L63.1,72c4.1-0.4,7.8-0.8,10.2-1.1l4.9,1.1l0.2,2.7c0,0-32,6.2-37.5,7.3l1.5-3.5
				C33,78.9,24.1,78.5,24.1,78.5z M22.8,92.2c9.5-3.1,18.9-5.7,22-6.5l-4.2-2.2c0.2,0,0.4,0,0.6-0.1l7.4-1.4l6,2.7l-3.3-3.2l8.7-1.6
				l4.5,2.3l-2.3-2.8l11.7-2.2l3.6,1.5l-0.4,2.3c0,0-23.1,6.8-31.7,9.5l0.4-3.3C37.6,89.3,22.8,92.2,22.8,92.2z M24.2,103.3
				l23.9-8.4l-5.7-1.8c5.2-1.4,10.7-2.9,16-4.5c3,0.1,8.7,0.3,8.7,0.3l-4.8-1.5c3.3-1,6.6-2,9.6-3l3.6-0.9l2.5,2.6v1.8
				c0,0-23,8.9-31.7,11.5l1.9-2.5L24.2,103.3z M24.8,115.2c7.7-4.3,18.7-9,23.5-11.1l-4.9-2.2c6.5-2.3,13.1-4.6,18.8-6.5l4.2,1.1
				l-2.4-1.7c5.6-1.9,10.2-3.4,12.3-4.1l2.3,1.8l0.1,1c-8.4,4.9-21.4,12-34.3,17.7l4.1-5.3C40.7,108.9,24.8,115.2,24.8,115.2z
				 M35.1,122.1c5.1-3.1,13-7.6,17.5-10.1c-1.3-0.3-3-0.7-4.6-0.8c3.8-1.7,7.8-3.6,11.8-5.5l5.2,1.3l-3.3-2.2c1.9-1,3.9-1.9,5.8-2.9
				l5,1.1l-3.1-2c3.8-2,7.4-4,10.8-5.9l2.9,0.5l-1.2,3.5c-3.3,2.2-15.5,10.6-30.1,20.8l3-6.5C47.2,116.8,35.1,122.1,35.1,122.1z
				 M59.2,122.7c6.6-5.3,15.4-13.4,15.4-13.4c-2.1,1.6-12.9,9.4-16.8,12.2c0.4-1.3,0.8-3.1,0.9-4.4c8.1-5.5,20.5-13.9,25.4-17.2
				l2.6-3.1l-0.7,4.8c-2.1,2.1-13.8,13.9-21.3,19.6L59.2,122.7z M114.7,112.1c-2.1,0.6-7.4,1.9-15.1,0.9c0,0-5.2-1-9.1-4.9
				c0.3-0.5,0.7-1.1,1-1.6l0.7,0.8l9.8-18.1l-12,15.8l0.4,0.4c-1.5,2-5,6.5-8.8,11.1l-1.7-3.8l0.5,5.3c-3.2,3.8-6.5,7.5-9.1,9.9
				l0.4-5.9l-4.3,0.8l21-20.4l1.6,2.5l9.2-16.7l-9.9,12.7L96.7,88v0v0l1.4-0.9l-0.9-2.6c0,0,12.7-20.9,20.8-30l11.2,7.8
				c0,0-12.9,15-22.4,29.4C106.8,91.8,117.7,100.1,114.7,112.1z M136.3,88.8l-4,1.6c0,0,2.7-0.2,2.4,1.6c0,0-0.5,1-2.5,1.4
				c0,0,1.4,0.7,1,3.2c0,0-0.2,4.9-3.5,5c0,0-3.1,0.2-7.1-1.6c-0.1-0.1-0.2-0.2-0.2-0.2s-0.4-0.1-1.1-0.5c-1.5-0.8-3-1.9-4.5-3.3
				c-0.7-0.7-1.3-1.5-1.9-2.5c-0.1-0.5-0.1-0.9,0-1.4c0.2-1.6,1.2-3.1,2.6-3.9c1-0.6,2.2-0.9,2.6-1.9c0.3-0.8,0-1.7-0.4-2.4
				c-0.4-0.7-1-1.4-1.2-2.2c-0.2-0.6-0.2-1.2,0-1.8c1.9-2.9,4-6,6.3-8.8c0,0,0,0,0.1,0c0.8,0,1.6,0.2,2.3,0.4
				c0.3,0.1,0.7,0.2,1.1,0.3c0.4,0.1,1,0,1.2-0.4c0.3-0.4,0.1-0.6-0.3-0.7c-0.9-0.4-2.1-0.6-3.1-0.5c-0.2,0-0.3,0-0.5,0.1
				c0.7-0.8,1.5-1.6,2.2-2.4c0,0,0.7-0.8,1.5-1.8c0.6,1,1.2,2.9,1,6.7c-0.3,0.1-0.5,0.2-0.8,0.3c0.2-0.2,0.4-0.4,0.5-0.7
				c-0.2-0.1-0.3,0-0.5,0.1c-0.5,0.3-1,0.5-1.5,0.8c-0.1,0-0.1,0-0.2,0c0.1-0.3,0.2-0.6,0.2-0.9c-0.3,0.4-0.7,0.8-1.1,1.1
				c-2.2,0.7-3.2,2.1-3.2,2.1c0.8,0.6,4.4,0.5,4.4,0.5c1.7,0,1.6-1.3,1.6-1.3c0-0.2,0-0.4,0-0.6c0.1,0,0.3,0,0.4-0.1
				c0.5,0.9,2.8,5.4,5.8,7.6c0,0,1.1,1.1-0.4,1.9l-1.7,0.8c0,0,0.8,1.5,1.9,2.1C136.1,86.7,138.5,87.9,136.3,88.8z"/>
			<path d="M132.9,83.8c0-0.2,0.1-0.4,0.1-0.5c0-0.2-0.3-0.5-0.4-0.3l0,0c-0.3,0.4-0.5,0.9-0.5,1.4c0.1,0.5,0.6,1,1.1,0.8
				c0.1,0,0.2-0.1,0.2-0.2c0-0.1-0.1-0.1-0.1-0.2C133,84.6,132.9,84.2,132.9,83.8z"/>
		</g>
		<g>
			<circle class="st6" cx="103.7" cy="97.3" r="2.6"/>
			<path class="st6" d="M91,130.3h18.7l-2.6-8.1c0,0-1.8-4.4-5.6-4.8c0,0-5.8,0-8.2,4.7C93.3,122.1,91.4,127.4,91,130.3z"/>
		</g>
	</g>
</g>
</svg>
