<?xml version="1.0" encoding="UTF-8"?>
<svg id="Layer_1" data-name="Layer 1" xmlns="http://www.w3.org/2000/svg" viewBox="0 0 189.22 131.26">
  <defs>
    <style>
      .cls-1 {
        fill: #fff;
      }

      .cls-2 {
        fill: #b12025;
      }

      .cls-3 {
        fill: #252e65;
      }
    </style>
  </defs>
  <path class="cls-1" d="M101.53,27.6c.95-.79,2.22-1.31,2.9-2.33-1.16,.51-1.91,1.59-2.9,2.33Z"/>
  <g>
    <polygon class="cls-1" points="3.61 4.25 3.61 4.25 3.61 4.25 3.61 4.25"/>
    <polygon class="cls-1" points="68.22 89.54 68.22 89.54 68.22 89.54 68.22 89.54"/>
    <polygon class="cls-1" points="2.21 43.88 2.21 43.88 2.21 43.88 2.21 43.88"/>
    <polygon class="cls-1" points="26.87 89.54 26.87 89.54 26.87 89.54 26.87 89.54"/>
    <polygon class="cls-1" points="73.45 89.4 73.45 89.4 73.45 89.4 73.45 89.4"/>
    <polygon class="cls-1" points="155.1 89.54 155.1 89.54 155.1 89.54 155.1 89.54"/>
    <polygon class="cls-1" points="96.42 89.69 96.42 89.69 96.42 89.69 96.42 89.69"/>
    <polygon class="cls-1" points="73.45 3.96 73.45 3.96 73.45 3.96 73.45 3.96"/>
    <polygon class="cls-1" points="28.41 46.63 28.42 46.63 28.42 46.63 28.41 46.63"/>
    <path class="cls-1" d="M189.12,.91l-.35-.16h-14.57c-.23,0-.43,.18-.46,.41l-1.84,16.09c-.75-5.6-1.32-10.25-1.68-13.88h0s-.22-2.2-.22-2.2c-.02-.24-.22-.42-.46-.42h-14.61l-.35,.16-.1,.38,.49,2.81c-2.2-2.02-5.2-3.35-8.51-3.35h-16.85l-.33,.13-.14,.33V6.59c-.58-1.13-1.33-2.17-2.24-3.07h0c-1.06-1.05-2.32-1.92-3.74-2.54h0C121.75,.36,120.17,0,118.51,0c-.31,0-.61,.02-.91,.04h0s-.01,0-.01,0h-.02s-.02,0-.02,0c0,0,0,0-.01,0-1.46,.1-2.92,.42-4.3,1.02-.36,.15-.69,.34-1.02,.53-.21-.16-.42-.33-.66-.46-1.37-.8-2.93-1.09-4.47-1.09h-10.06l-.34,.15-.12,.35,.26,2.64c.03,.32,.07,.66,.11,1.01-.08-.08-.14-.15-.22-.23-2.21-2.07-5.28-3.36-8.64-3.36h-5.98c-3.36,0-6.43,1.29-8.65,3.36-.99,.92-1.8,2.01-2.41,3.21-.15-.43-.33-.86-.54-1.27h0c-.48-.92-1.1-1.75-1.88-2.45-.78-.7-1.69-1.25-2.68-1.63l-.26-.1-.09-.02-5.71-.94h-.08s-16.33,0-16.33,0h-14.38l-.33,.13-.14,.33V6.34c-.5-.76-1.09-1.47-1.75-2.09-2.21-2.07-5.28-3.36-8.64-3.36h-5.98c-3.36,0-6.43,1.29-8.64,3.36C1.39,6.31,0,9.2,0,12.37H0S0,12.37,0,12.37v24.49l.14,.33h.02c.03,2.34,.74,4.62,2.05,6.69,1.34,2.13,3.27,4.06,5.7,5.86h0s.01,.01,.01,.01h0s.03,.02,.03,.02h0c2.22,1.57,3.86,2.75,4.94,3.53,.54,.39,.95,.68,1.21,.88h0s.1,.07,.1,.07c.17,.22,.4,.63,.58,1.31L.73,45.27l-.48-.04L0,45.64v35.78H0c0,3.16,1.46,6.01,3.66,8.07,2.2,2.06,5.24,3.41,8.59,3.41h5.98c3.36,0,6.43-1.29,8.64-3.36,.67-.62,1.25-1.33,1.75-2.09v4.99l.14,.33,.33,.13h30.49c3.36,0,6.43-1.29,8.64-3.36,1.12-1.05,2.02-2.31,2.64-3.71,.62,1.34,1.5,2.56,2.58,3.57,2.21,2.07,5.28,3.36,8.64,3.36h0s0,0,0,0h0s0,0,0,0h6c3.21,0,6.16-1.15,8.33-3.07,1.64-1.44,2.84-3.31,3.47-5.41v8.01l.14,.33,.33,.13h14.38l.33-.13,.07-.17,.07,.17,.33,.13h13.76s.33,.14,.33,.14h16.85c3.36,0,6.43-1.29,8.64-3.36,2.21-2.06,3.61-4.95,3.61-8.12h0v-27.97l-.25-.41-.48,.04-13.52,10.11v-12.56h7.82l.33-.13,.14-.33v-11.15l-.14-.33-.33-.13h-7.82v-13.42l13.52,10.11,.48,.04,.25-.41v-9.14l5.42,31.4v35.28l.14,.33,.33,.13h14.38l.33-.13,.14-.33V57.16c4.42-25.65,7.63-43.33,9.31-53.06h0s.49-2.81,.49-2.81l-.1-.38ZM69.94,43.33h0s0,0,0,0h0Zm0-6.44h0s0,0,0,0c0,0,0,0,0,0Zm-.1,6.27c-.63-1.09-1.42-2.09-2.34-3.04,.91-.96,1.7-1.98,2.34-3.07v6.11Zm-45.88-.96l-.03-.03h0s-.02-.02-.02-.02h0c-1.95-1.38-4.09-2.85-5.79-4.1-.85-.62-1.59-1.19-2.11-1.63h0c-.22-.18-.38-.34-.5-.46-.03-.17-.07-.39-.1-.69h0c-.04-.45-.07-1.03-.08-1.71l.05,.1,13.27,9.92v3.38c-.07-.12-.13-.24-.21-.35-1.05-1.54-2.5-2.95-4.45-4.42h0Z"/>
    <polygon class="cls-1" points="113.24 1.06 113.24 1.06 113.24 1.06 113.24 1.06"/>
    <polygon class="cls-1" points="111.56 1.12 111.56 1.12 111.56 1.12 111.56 1.12"/>
    <polygon class="cls-1" points="68.62 3.45 68.62 3.45 68.62 3.45 68.62 3.45"/>
    <polygon class="cls-1" points="96.72 3.96 96.72 3.96 96.72 3.96 96.72 3.96"/>
    <polygon class="cls-1" points="26.87 4.25 26.87 4.25 26.87 4.25 26.87 4.25"/>
  </g>
  <g>
    <path class="cls-3" d="M27.61,81.42c0,4.73-4.13,8.6-9.19,8.6h-5.97c-4.9,0-9.19-4.01-9.19-8.6v-30.8l9.19,6.73v23.78c0,1.86,1.07,2.86,3.06,2.86s2.91-1,2.91-2.86v-22.06c0-3.3-.61-5.59-1.84-6.88,0,0-2.14-1.58-6.58-4.73-4.44-3.29-6.58-6.73-6.58-10.46v-2.58h-.15V12.37C3.27,7.64,7.4,3.77,12.45,3.77h5.97c5.05,0,9.19,3.87,9.19,8.6v26.65l-9.19-6.88V12.51c0-1.86-.92-2.72-2.91-2.72s-3.06,.86-3.06,2.72v20.49c0,2.15,.15,3.58,.46,4.3,.77,1.29,5.51,4.44,9.34,7.16,4.75,3.58,5.36,6.16,5.36,10.03v26.93Z"/>
    <path class="cls-3" d="M41.05,90.02h-9.19V3.63h9.19V90.02Z"/>
    <path class="cls-3" d="M68.91,81.42c0,4.73-4.13,8.6-9.19,8.6h-14.24V3.63h14.24l5.21,.86c2.6,1,3.98,3.58,3.98,7.74V29.71h-.15v.57c0,3.72-1.84,7.02-5.51,9.89,3.67,2.72,5.51,6.02,5.51,9.89v8.88h.15v22.49ZM59.72,12.51c0-1.86-1.07-2.86-3.06-2.86h-1.99v27.51c.15,.14,.46,.14,.92,.14,.31,0,.61,0,1.07-.14,1.99-1.58,2.91-2.72,2.91-3.72l.15-20.92Zm0,57.59h-.15v-23.35c0-1.86-.92-3.01-2.91-3.72-1.07-.14-1.68-.14-1.99,0v40.97h1.99c1.99,0,3.06-.86,3.06-2.72v-11.17Z"/>
    <path class="cls-3" d="M127.38,89.88h-9.19V11.65c0-1.86-.92-2.72-2.91-2.72s-3.06,.86-3.06,2.72V89.88h-9.19V11.8c0-1.43-.77-2.15-2.45-2.15-.15-3.01-.46-5.16-.61-6.73h7.2c2.3,0,3.83,.86,4.59,2.72,1.68-1.72,3.83-2.58,6.12-2.72,5.05-.43,9.49,3.87,9.49,8.6V89.88Z"/>
    <path class="cls-3" d="M155.68,81.42c0,4.73-4.13,8.6-9.19,8.6h-14.24V3.63h14.24c4.9,0,9.19,4.01,9.19,8.6V29.85l-9.19-6.88V12.51c0-1.86-1.07-2.86-3.06-2.86h-1.99v31.8h8.27v6.3h-8.27v36.25h1.99c1.99,0,3.06-.86,3.06-2.72v-15.9l9.19-6.88v22.92Z"/>
    <path class="cls-3" d="M185.72,3.63c-1.68,9.74-4.9,27.51-9.34,53.29v33.09h-9.19V56.93L158.01,3.63h9.19c.77,7.74,2.45,19.77,4.75,35.96,.76-5.01,1.84-12.03,2.91-21.2l1.68-14.76h9.19Z"/>
    <path class="cls-3" d="M88.18,3.49h-5.97c-5.05,0-9.19,3.87-9.19,8.6V81.28c0,4.73,4.13,8.6,9.19,8.6h5.97c4.9,0,8.73-3.44,9.19-8.02V12.08c0-4.73-4.13-8.6-9.19-8.6Zm3.15,23.17s-.68-5.44-3.15-6.74v61.22c0,1.86-.92,2.72-2.91,2.72s-3.06-.86-3.06-2.72V19.72h-3.62c-.45,0-.82-.34-.82-.76v-3.52c0-.42,.37-.76,.82-.76h3.62v-2.45c0-1.58,1.07-2.58,3.06-2.72,1.99,0,2.91,.86,2.91,2.72v2.02c1.26-.5,2.96-1.42,4.9-3.1,0,0,.64-.34,.68,.4,0,0,1.98,10.81-2.43,15.11Z"/>
  </g>
  <g>
    <polygon class="cls-2" points="149.33 98.7 27.87 98.7 16.86 112.13 34.52 114.04 15.3 114.04 3.85 114.46 3.85 118.66 15.52 118.66 31.69 131.26 89.06 131.26 94.72 123.7 95.19 131.26 121.59 131.26 124.86 127.48 126.21 131.26 149.56 131.26 176.95 112.99 149.33 98.7"/>
    <g>
      <path class="cls-1" d="M47.81,122.74h-6.89v-18.9h3.45v17.31l3.45,.03v1.57Z"/>
      <path class="cls-1" d="M59.93,122.71h-2.64c-.86,0-1.44-.19-1.72-.6-.63,.38-1.44,.56-2.3,.6-1.9,.09-3.56-.85-3.56-1.88v-6.05c0-1.03,1.67-1.94,3.56-1.85,.81,.03,1.49,.19,2.07,.47v-2.85c0-.41-.34-.6-1.09-.6s-1.09,.19-1.09,.6v.94l-3.45,1.5v-2.48c0-1.03,1.55-1.88,3.45-1.88h2.18c1.9,0,3.45,.85,3.45,1.88v10.25c.06,.28,.4,.44,.92,.47l.23,1.47Zm-4.6-7.87c0-.41-.34-.63-1.09-.63-.75,.22-1.09,.41-1.09,.63v5.96c0,.41,.34,.6,1.09,.6,.75-.22,1.09-.41,1.09-.6v-5.96Z"/>
      <path class="cls-1" d="M71.14,108.6c-.06,.34-.17,.81-.23,1.47-.17-.03-.46,0-.75,.06-.12,.06-.17,.19-.17,.41v15.68c0,1.03-1.55,1.88-3.45,1.88h-2.18c-1.9,0-3.45-.85-3.45-1.88v-3.04l3.45,1.5v1.5c0,.41,.35,.6,1.09,.6,.29-.03,.57-.13,.98-.28l.12-.19v-4.08c-.63,.31-1.38,.47-2.13,.5-1.9,.09-3.56-.85-3.56-1.88v-10.38c0-1.1,1.61-1.98,3.62-1.88,.92,.03,1.67,.22,2.24,.56,.34-.38,.92-.56,1.78-.56h2.64Zm-4.6,1.91c0-.41-.35-.63-1.09-.6-.75,0-1.09,.19-1.09,.6v9.31c0,.63,0,.97-.06,1,0,.41,.4,.63,1.15,.6,.75,0,1.09-.19,1.09-.6v-10.31Z"/>
      <path class="cls-1" d="M75.9,120.79c0,.41,.34,.6,1.09,.6s1.09-.19,1.09-.6v-1.5l3.45-1.5v3.04c0,1.03-1.55,1.88-3.45,1.88h-2.18c-1.9,0-3.45-.85-3.45-1.88v-10.31c0-1.1,1.44-1.88,3.45-1.88h2.18c1.9,0,3.45,.85,3.45,1.88v5.74c0,1.1-1.55,1.98-3.56,1.88-.75-.03-1.44-.19-2.07-.47v3.13Zm2.18-10.25c0-.41-.34-.6-1.09-.6-.75,.19-1.09,.38-1.09,.6v5.67c0,.41,.34,.6,1.09,.6,.75-.19,1.09-.38,1.09-.6v-5.67Z"/>
      <path class="cls-1" d="M93.43,113.9l-3.45-1.5v-1.88c0-.41-.34-.6-1.09-.6-.75,.06-1.09,.25-1.09,.6v12.23h-3.45v-12.2c-.06-.28-.4-.44-.92-.47l-.23-1.47h2.64c.86,0,1.44,.19,1.72,.6,.63-.38,1.44-.56,2.3-.6,1.9-.09,3.56,.85,3.56,1.88v3.42Z"/>
      <path class="cls-1" d="M112.22,120.86c0,1.03-1.55,1.88-3.45,1.88h-5.34v-18.9h5.34l1.95,.19c.98,.22,1.49,.78,1.49,1.69v3.82h-.06v.13c0,.81-.69,1.54-2.07,2.16,1.38,.6,2.07,1.32,2.07,2.16v1.94h.06v4.92Zm-3.45-15.08c0-.41-.4-.63-1.15-.63h-.75v6.02c.06,.03,.17,.03,.34,.03,.11,0,.23,0,.4-.03,.75-.35,1.09-.6,1.09-.82l.06-4.58Zm0,12.6h-.06v-5.11c0-.41-.34-.66-1.09-.81-.4-.03-.63-.03-.75,0v8.97h.75c.75,0,1.15-.19,1.15-.6v-2.45Z"/>
      <path class="cls-1" d="M117.16,120.79c0,.41,.34,.6,1.09,.6s1.09-.19,1.09-.6v-1.5l3.45-1.5v3.04c0,1.03-1.55,1.88-3.45,1.88h-2.18c-1.9,0-3.45-.85-3.45-1.88v-10.31c0-1.1,1.44-1.88,3.45-1.88h2.18c1.9,0,3.45,.85,3.45,1.88v5.74c0,1.1-1.55,1.98-3.56,1.88-.75-.03-1.44-.19-2.07-.47v3.13Zm2.18-10.25c0-.41-.34-.6-1.09-.6-.75,.19-1.09,.38-1.09,.6v5.67c0,.41,.34,.6,1.09,.6,.75-.19,1.09-.38,1.09-.6v-5.67Z"/>
      <path class="cls-1" d="M127.97,120.79c0,.41,.34,.6,1.09,.6s1.09-.19,1.09-.6v-1.5l3.45-1.5v3.04c0,1.03-1.55,1.88-3.45,1.88h-2.18c-1.9,0-3.45-.85-3.45-1.88v-10.31c0-1.1,1.44-1.88,3.45-1.88h2.18c1.9,0,3.45,.85,3.45,1.88v5.74c0,1.1-1.55,1.98-3.56,1.88-.75-.03-1.44-.19-2.07-.47v3.13Zm2.18-10.25c0-.41-.34-.6-1.09-.6-.75,.19-1.09,.38-1.09,.6v5.67c0,.41,.34,.6,1.09,.6,.75-.19,1.09-.38,1.09-.6v-5.67Z"/>
      <path class="cls-1" d="M145.49,113.9l-3.45-1.5v-1.88c0-.41-.34-.6-1.09-.6-.75,.06-1.09,.25-1.09,.6v12.23h-3.45v-12.2c-.06-.28-.4-.44-.92-.47l-.23-1.47h2.64c.86,0,1.44,.19,1.72,.6,.63-.38,1.44-.56,2.3-.6,1.9-.09,3.56,.85,3.56,1.88v3.42Z"/>
    </g>
  </g>
</svg>